<?xml version="1.0" encoding="UTF-8" standalone="no"?>
<svg
   width="495.9375pt"
   height="661.82812pt"
   viewBox="0 0 495.93752 661.82811"
   version="1.1"
   id="svg39364"
   sodipodi:docname="PLAYING CARD SEVEN OF DIAMONDS.svg"
   inkscape:version="1.1.1 (3bf5ae0d25, 2021-09-20)"
   xmlns:inkscape="http://www.inkscape.org/namespaces/inkscape"
   xmlns:sodipodi="http://sodipodi.sourceforge.net/DTD/sodipodi-0.dtd"
   xmlns:xlink="http://www.w3.org/1999/xlink"
   xmlns="http://www.w3.org/2000/svg"
   xmlns:svg="http://www.w3.org/2000/svg">
  <sodipodi:namedview
     id="namedview39366"
     pagecolor="#505050"
     bordercolor="#eeeeee"
     borderopacity="1"
     inkscape:pageshadow="0"
     inkscape:pageopacity="0"
     inkscape:pagecheckerboard="0"
     inkscape:document-units="pt"
     showgrid="false"
     inkscape:zoom="0.46963588"
     inkscape:cx="331.10758"
     inkscape:cy="450.3489"
     inkscape:window-width="1366"
     inkscape:window-height="705"
     inkscape:window-x="-8"
     inkscape:window-y="-8"
     inkscape:window-maximized="1"
     inkscape:current-layer="svg39364" />
  <defs
     id="defs39345">
    <g
       id="g39340">
      <symbol
         overflow="visible"
         id="glyph0-0">
        <path
           style="stroke:none"
           d=""
           id="path39328" />
      </symbol>
      <symbol
         overflow="visible"
         id="glyph0-1">
        <path
           style="stroke:none"
           d=""
           id="path39331" />
      </symbol>
      <symbol
         overflow="visible"
         id="glyph1-0">
        <path
           style="stroke:none"
           d="M 82.078125,0 V -616.89062 H 436.3125 V 0 Z M 126.14063,-44.0625 H 393.125 V -572.82812 H 126.14063 Z m 0,0"
           id="path39334" />
      </symbol>
      <symbol
         overflow="visible"
         id="glyph1-1">
        <path
           style="stroke:none"
           d="M 73.4375,0 C 61.34375,0 53.417969,-1.867188 49.671875,-5.609375 45.929688,-9.355469 44.0625,-17.28125 44.0625,-29.375 v -603.07812 c 0,-12.08985 1.867188,-20.00782 5.609375,-23.75 3.746094,-3.7461 11.671875,-5.625 23.765625,-5.625 H 510.625 c 12.08984,0 20.00781,1.8789 23.75,5.625 3.74609,3.74218 5.625,11.66015 5.625,23.75 V -29.375 c 0,12.09375 -1.87891,20.019531 -5.625,23.765625 C 530.63281,-1.867188 522.71484,0 510.625,0 Z m 5.1875,-12.09375 h 426.8125 c 9.78906,0 15.98437,-1.296875 18.57812,-3.890625 2.58985,-2.589844 3.89063,-8.785156 3.89063,-18.578125 v -592.70312 c 0,-10.36329 -1.30078,-16.69532 -3.89063,-19 -2.59375,-2.3086 -8.78906,-3.46875 -18.57812,-3.46875 H 78.625 c -10.367187,0 -16.707031,1.16015 -19.015625,3.46875 -2.304687,2.30468 -3.453125,8.63671 -3.453125,19 V -34.5625 c 0,9.792969 1.148438,15.988281 3.453125,18.578125 2.308594,2.59375 8.648438,3.890625 19.015625,3.890625 z m 8.640625,-555.54687 c 1.726563,-18.4336 8.351563,-34.28125 19.875005,-47.53125 H 79.484375 v -11.23438 h 39.750005 v 10.375 c -12.67969,10.94922 -19.01563,27.08203 -19.01563,48.39063 z m 109.718745,86.39062 -48.375,-62.20312 48.375,-62.20313 48.39063,62.20313 z m 190.09375,0 -48.39062,-62.20312 48.39062,-62.20313 48.375,62.20313 z M 98.5,-491.60937 76.03125,-520.125 98.5,-548.64062 120.95313,-520.125 Z m 193.53125,116.64062 -48.39063,-62.21875 48.39063,-62.20312 48.39062,62.20312 z m -95.04688,106.26563 -48.375,-62.20313 48.375,-62.21875 48.39063,62.21875 z m 190.09375,0 -48.39062,-62.20313 48.39062,-62.21875 48.375,62.21875 z m -190.09375,212.54687 -48.375,-62.21875 48.375,-62.20312 48.39063,62.20312 z m 190.09375,0 -48.39062,-62.21875 48.39062,-62.20312 48.375,62.20312 z m 98.48438,-57.03125 -22.45313,-28.51562 22.45313,-28.5 22.46875,28.5 z m -20.73438,77.765625 v -10.375 c 12.67579,-10.363281 19.01563,-26.488281 19.01563,-48.375 h 12.95312 c -1.73046,18.429687 -8.35546,34.269531 -19.875,47.515625 h 27.65625 v 11.234375 z m 0,0"
           id="path39337" />
      </symbol>
    </g>
    <clipPath
       id="clip1">
      <path
         d="M 0,0 H 651.96875 V 793.69922 H 0 Z m 0,0"
         id="path39342" />
    </clipPath>
  </defs>
  <g
     style="fill:#C0020A;fill-opacity:1"
     id="g39353"
     transform="translate(-77.851398,-59.362854)">
    <use
       xlink:href="#glyph0-1"
       x="32.512901"
       y="735.39221"
       id="use39351"
       width="100%"
       height="100%" />
  </g>
  <g
     style="fill:#C0020A;fill-opacity:1"
     id="g39357"
     transform="translate(-77.851398,-59.362854)">
    <use
       xlink:href="#glyph0-1"
       x="324.39691"
       y="735.39221"
       id="use39355"
       width="100%"
       height="100%" />
  </g>
  <g
     style="fill:#C0020A;fill-opacity:1"
     id="g39361"
     transform="translate(-77.851398,-59.362854)">
    <use
       xlink:href="#glyph1-1"
       x="33.788898"
       y="721.19098"
       id="use39359"
       width="100%"
       height="100%" />
  </g>
</svg>
