<?xml version="1.0" encoding="UTF-8" standalone="no"?>
<svg
   width="495.9375pt"
   height="661.82812pt"
   viewBox="0 0 495.93752 661.82811"
   version="1.1"
   id="svg23086"
   sodipodi:docname="PLAYING CARD EIGHT OF CLUBS.svg"
   inkscape:version="1.1.1 (3bf5ae0d25, 2021-09-20)"
   xmlns:inkscape="http://www.inkscape.org/namespaces/inkscape"
   xmlns:sodipodi="http://sodipodi.sourceforge.net/DTD/sodipodi-0.dtd"
   xmlns:xlink="http://www.w3.org/1999/xlink"
   xmlns="http://www.w3.org/2000/svg"
   xmlns:svg="http://www.w3.org/2000/svg">
  <sodipodi:namedview
     id="namedview23088"
     pagecolor="#505050"
     bordercolor="#eeeeee"
     borderopacity="1"
     inkscape:pageshadow="0"
     inkscape:pageopacity="0"
     inkscape:pagecheckerboard="0"
     inkscape:document-units="pt"
     showgrid="false"
     inkscape:zoom="0.46963588"
     inkscape:cx="331.10758"
     inkscape:cy="450.3489"
     inkscape:window-width="1366"
     inkscape:window-height="705"
     inkscape:window-x="-8"
     inkscape:window-y="-8"
     inkscape:window-maximized="1"
     inkscape:current-layer="svg23086" />
  <defs
     id="defs23067">
    <g
       id="g23062">
      <symbol
         overflow="visible"
         id="glyph0-0">
        <path
           style="stroke:none"
           d=""
           id="path23050" />
      </symbol>
      <symbol
         overflow="visible"
         id="glyph0-1">
        <path
           style="stroke:none"
           d=""
           id="path23053" />
      </symbol>
      <symbol
         overflow="visible"
         id="glyph1-0">
        <path
           style="stroke:none"
           d="M 82.078125,0 V -616.89062 H 436.3125 V 0 Z M 126.14063,-44.0625 H 393.125 V -572.82812 H 126.14063 Z m 0,0"
           id="path23056" />
      </symbol>
      <symbol
         overflow="visible"
         id="glyph1-1">
        <path
           style="stroke:none"
           d="M 73.4375,0 C 61.34375,0 53.417969,-1.867188 49.671875,-5.609375 45.929688,-9.355469 44.0625,-17.28125 44.0625,-29.375 v -603.07812 c 0,-12.08985 1.867188,-20.00782 5.609375,-23.75 3.746094,-3.7461 11.671875,-5.625 23.765625,-5.625 H 510.625 c 12.08984,0 20.00781,1.8789 23.75,5.625 3.74609,3.74218 5.625,11.66015 5.625,23.75 V -29.375 c 0,12.09375 -1.87891,20.019531 -5.625,23.765625 C 530.63281,-1.867188 522.71484,0 510.625,0 Z m 5.1875,-12.09375 h 426.8125 c 9.78906,0 15.98437,-1.296875 18.57812,-3.890625 2.58985,-2.589844 3.89063,-8.785156 3.89063,-18.578125 v -592.70312 c 0,-10.36329 -1.30078,-16.69532 -3.89063,-19 -2.59375,-2.3086 -8.78906,-3.46875 -18.57812,-3.46875 H 78.625 c -10.367187,0 -16.707031,1.16015 -19.015625,3.46875 -2.304687,2.30468 -3.453125,8.63671 -3.453125,19 V -34.5625 c 0,9.792969 1.148438,15.988281 3.453125,18.578125 2.308594,2.59375 8.648438,3.890625 19.015625,3.890625 z m 19,-553.82812 c -14.96875,0 -22.453125,-6.04688 -22.453125,-18.14063 0,-8.05859 3.742188,-12.95703 11.234375,-14.6875 -5.761719,-1.72656 -8.640625,-5.75781 -8.640625,-12.09375 0,-5.18359 2.300781,-9.21875 6.90625,-12.09375 4.601563,-2.88281 8.921875,-4.32812 12.953125,-4.32812 13.24609,0 19.875,5.18359 19.875,15.54687 0,5.76172 -2.88281,10.08594 -8.64062,12.96875 7.48828,1.73047 11.23437,6.62891 11.23437,14.6875 0,12.09375 -7.49219,18.14063 -22.46875,18.14063 z m 0,-36.28125 c 5.75781,0 8.64063,-2.59375 8.64063,-7.78125 0,-5.1836 -2.88282,-7.78125 -8.64063,-7.78125 -5.761719,0 -8.640625,2.59765 -8.640625,7.78125 0,5.1875 2.878906,7.78125 8.640625,7.78125 z m 285.98437,107.125 c 4.02735,-6.33204 6.04688,-15.54688 6.04688,-27.64063 v -6.90625 c -5.75,12.66797 -14.10156,19 -25.04688,19 -6.91796,0 -12.67968,-2.30078 -17.28125,-6.90625 -4.60546,-4.61328 -6.90625,-10.375 -6.90625,-17.28125 0,-6.91406 2.30079,-12.67578 6.90625,-17.28125 4.60157,-4.61328 10.36329,-6.92187 17.28125,-6.92187 5.75782,0 10.65625,1.16015 14.6875,3.46875 -8.0625,-8.0586 -12.09375,-16.41407 -12.09375,-25.0625 0,-6.33204 2.44532,-11.94532 7.34375,-16.84375 4.89454,-4.89454 10.50782,-7.34375 16.84375,-7.34375 6.33204,0 11.94532,2.44921 16.84375,7.34375 4.89454,4.89843 7.34375,10.51171 7.34375,16.84375 0,8.64843 -4.03515,17.0039 -12.09375,25.0625 4.02735,-2.3086 8.92579,-3.46875 14.6875,-3.46875 6.91407,0 12.67579,2.30859 17.28125,6.92187 4.61329,4.60547 6.92188,10.36719 6.92188,17.28125 0,6.90625 -2.30859,12.66797 -6.92188,17.28125 -4.60546,4.60547 -10.36718,6.90625 -17.28125,6.90625 -11.52343,0 -19.87109,-6.33203 -25.04687,-19 v 6.90625 c 0,10.36719 2.01562,19.58203 6.04687,27.64063 z m -197.84375,0 c 4.02735,-6.33204 6.04688,-15.54688 6.04688,-27.64063 v -6.90625 c -5.76172,12.66797 -14.11719,19 -25.0625,19 -6.90625,0 -12.66797,-2.30078 -17.28125,-6.90625 -4.60547,-4.61328 -6.90625,-10.375 -6.90625,-17.28125 0,-6.91406 2.30078,-12.67578 6.90625,-17.28125 4.61328,-4.61328 10.375,-6.92187 17.28125,-6.92187 5.75781,0 10.65625,1.16015 14.6875,3.46875 -8.0625,-8.0586 -12.09375,-16.41407 -12.09375,-25.0625 0,-6.33204 2.44531,-11.94532 7.34375,-16.84375 4.89453,-4.89454 10.50781,-7.34375 16.84375,-7.34375 6.33984,0 11.96094,2.44921 16.85937,7.34375 4.89454,4.89843 7.34375,10.51171 7.34375,16.84375 0,8.64843 -4.03906,17.0039 -12.10937,25.0625 4.03906,-2.3086 8.9375,-3.46875 14.6875,-3.46875 6.91406,0 12.67578,2.30859 17.28125,6.92187 4.61328,4.60547 6.92187,10.36719 6.92187,17.28125 0,6.90625 -2.30859,12.66797 -6.92187,17.28125 -4.60547,4.60547 -10.36719,6.90625 -17.28125,6.90625 -11.51172,0 -19.86328,-6.33203 -25.04688,-19 v 6.90625 c 0,10.36719 2.01563,19.58203 6.04688,27.64063 z M 97.625,-575.42187 c 6.91406,0 10.375,-3.16407 10.375,-9.5 0,-6.33985 -3.46094,-9.51563 -10.375,-9.51563 -6.90625,0 -10.359375,3.17578 -10.359375,9.51563 0,6.33593 3.453125,9.5 10.359375,9.5 z m -2.578125,81.21875 2.578125,-14.6875 v -2.59375 c -2.304687,5.17968 -6.335937,7.76562 -12.09375,7.76562 -8.0625,0 -12.09375,-3.73828 -12.09375,-11.21875 0,-7.48828 4.03125,-11.23437 12.09375,-11.23437 l 3.453125,0.85937 c -1.71875,-1.72656 -2.578125,-5.47266 -2.578125,-11.23437 0,-8.63282 4.03125,-12.95313 12.09375,-12.95313 8.05859,0 12.09375,4.32031 12.09375,12.95313 0,4.03125 -1.73047,7.77734 -5.1875,11.23437 l 6.04688,-0.85937 c 8.05859,0 12.09375,3.74609 12.09375,11.23437 0,7.48047 -4.03516,11.21875 -12.09375,11.21875 -5.17969,0 -9.21094,-2.58594 -12.093755,-7.76562 v 2.59375 l 2.593755,14.6875 z M 285.125,-383.60937 c 4.02734,-8.07032 6.04687,-17.28907 6.04687,-27.65625 v -6.90625 c -5.1875,12.66796 -13.54296,19 -25.0625,19 -6.90625,0 -12.66796,-2.30079 -17.28125,-6.90625 -4.60546,-4.60157 -6.90625,-10.36329 -6.90625,-17.28125 0,-6.91407 2.30079,-12.67579 6.90625,-17.28125 4.61329,-4.60157 10.375,-6.90625 17.28125,-6.90625 5.75782,0 10.65625,1.15234 14.6875,3.45312 -8.0625,-8.05859 -12.09375,-16.41406 -12.09375,-25.0625 0,-6.33203 2.58594,-11.94531 7.76563,-16.84375 5.18359,-4.89453 10.66016,-7.34375 16.42187,-7.34375 6.33985,0 11.96094,2.44922 16.85938,7.34375 4.89453,4.89844 7.34375,10.51172 7.34375,16.84375 0,8.64844 -4.03906,17.00391 -12.10938,25.0625 4.03907,-2.30078 8.94141,-3.45312 14.70313,-3.45312 6.90234,0 12.66016,2.30468 17.26562,6.90625 4.61329,4.60546 6.92188,10.36718 6.92188,17.28125 0,6.91796 -2.30859,12.67968 -6.92188,17.28125 -4.60546,4.60546 -10.36328,6.90625 -17.26562,6.90625 -10.94922,0 -19.30469,-6.33204 -25.0625,-19 v 6.90625 c 0,12.09375 2.01562,21.3164 6.04687,27.65625 z m -99.35938,106.26562 c 4.02735,-6.33203 6.04688,-15.54687 6.04688,-27.64062 v -6.92188 c -5.76172,12.67969 -14.11719,19.01563 -25.0625,19.01563 -6.90625,0 -12.66797,-2.30079 -17.28125,-6.90625 -4.60547,-4.61329 -6.90625,-10.37891 -6.90625,-17.29688 0,-6.90234 2.30078,-12.66016 6.90625,-17.26562 4.61328,-4.61329 10.375,-6.92188 17.28125,-6.92188 5.75781,0 10.65625,1.15234 14.6875,3.45313 -8.0625,-8.0586 -12.09375,-16.41016 -12.09375,-25.04688 0,-6.33984 2.44531,-11.96094 7.34375,-16.85937 4.89453,-4.89454 10.50781,-7.34375 16.84375,-7.34375 6.33984,0 11.96094,2.44921 16.85937,7.34375 4.89454,4.89843 7.34375,10.51953 7.34375,16.85937 0,8.63672 -4.03906,16.98828 -12.10937,25.04688 4.03906,-2.30079 8.9375,-3.45313 14.6875,-3.45313 6.91406,0 12.67578,2.30859 17.28125,6.92188 4.61328,4.60546 6.92187,10.36328 6.92187,17.26562 0,6.91797 -2.30859,12.68359 -6.92187,17.29688 -4.60547,4.60546 -10.36719,6.90625 -17.28125,6.90625 -11.51172,0 -19.86328,-6.33594 -25.04688,-19.01563 v 6.92188 c 0,10.36718 2.01563,19.58203 6.04688,27.64062 z m 197.84375,0 c 4.02735,-6.33203 6.04688,-15.54687 6.04688,-27.64062 v -6.92188 c -5.75,12.67969 -14.10156,19.01563 -25.04688,19.01563 -6.91796,0 -12.67968,-2.30079 -17.28125,-6.90625 -4.60546,-4.61329 -6.90625,-10.37891 -6.90625,-17.29688 0,-6.90234 2.30079,-12.66016 6.90625,-17.26562 4.60157,-4.61329 10.36329,-6.92188 17.28125,-6.92188 5.75782,0 10.65625,1.15234 14.6875,3.45313 -8.0625,-8.0586 -12.09375,-16.41016 -12.09375,-25.04688 0,-6.33984 2.44532,-11.96094 7.34375,-16.85937 4.89454,-4.89454 10.50782,-7.34375 16.84375,-7.34375 6.33204,0 11.94532,2.44921 16.84375,7.34375 4.89454,4.89843 7.34375,10.51953 7.34375,16.85937 0,8.63672 -4.03515,16.98828 -12.09375,25.04688 4.02735,-2.30079 8.92579,-3.45313 14.6875,-3.45313 6.91407,0 12.67579,2.30859 17.28125,6.92188 4.61329,4.60546 6.92188,10.36328 6.92188,17.26562 0,6.91797 -2.30859,12.68359 -6.92188,17.29688 -4.60546,4.60546 -10.36718,6.90625 -17.28125,6.90625 -11.52343,0 -19.87109,-6.33594 -25.04687,-19.01563 v 6.92188 c 0,10.36718 2.01562,19.58203 6.04687,27.64062 z m -90.71875,108.85938 c -5.76171,0 -11.23828,-2.44532 -16.42187,-7.34375 -5.17969,-4.89454 -7.76563,-10.50782 -7.76563,-16.84375 0,-8.63282 4.03125,-16.98829 12.09375,-25.0625 -2.30468,0.58593 -4.60546,1.30859 -6.90625,2.17187 -2.30468,0.86719 -4.89843,1.29688 -7.78125,1.29688 -6.90625,0 -12.66796,-2.30079 -17.28125,-6.90625 -4.60546,-4.61329 -6.90625,-10.37891 -6.90625,-17.29688 0,-6.90234 2.30079,-12.66016 6.90625,-17.26562 4.61329,-4.61329 10.375,-6.92188 17.28125,-6.92188 11.51954,0 19.875,6.33984 25.0625,19.01563 v -6.92188 c 0,-10.36328 -2.01953,-19.57812 -6.04687,-27.64062 h 15.54687 c -4.03125,6.33593 -6.04687,15.55078 -6.04687,27.64062 v 6.92188 c 5.75781,-12.67579 14.11328,-19.01563 25.0625,-19.01563 6.90234,0 12.66016,2.30859 17.26562,6.92188 4.61329,4.60546 6.92188,10.36328 6.92188,17.26562 0,6.91797 -2.30859,12.68359 -6.92188,17.29688 -4.60546,4.60546 -10.36328,6.90625 -17.26562,6.90625 -2.3125,0 -4.76953,-0.42969 -7.35938,-1.29688 -2.58593,-0.86328 -5.03515,-1.58594 -7.34375,-2.17187 8.07032,8.07421 12.10938,16.42968 12.10938,25.0625 0,6.33593 -2.44922,11.94921 -7.34375,16.84375 -4.89844,4.89843 -10.51953,7.34375 -16.85938,7.34375 z m 192.67188,56.17187 c -8.0625,0 -12.09375,-4.32031 -12.09375,-12.96875 0,-4.60156 1.72656,-8.05469 5.1875,-10.35937 h -6.04688 c -8.0625,0 -12.09375,-3.74219 -12.09375,-11.23438 0,-7.48828 4.03125,-11.23437 12.09375,-11.23437 6.33204,0 10.36329,2.58984 12.09375,7.76562 v -2.57812 l -2.59375,-14.6875 h 6.92188 l -2.59375,14.6875 v 2.57812 c 1.72656,-5.17578 5.75781,-7.76562 12.09375,-7.76562 8.05859,0 12.09375,3.74609 12.09375,11.23437 0,7.49219 -4.03516,11.23438 -12.09375,11.23438 h -6.04688 c 3.44532,3.44921 5.17188,6.90234 5.17188,10.35937 0,8.64844 -4.03516,12.96875 -12.09375,12.96875 z m -292.03125,55.28125 c -6.33594,0 -11.94922,-2.445313 -16.84375,-7.34375 -4.89844,-4.894531 -7.34375,-10.507813 -7.34375,-16.84375 0,-8.632813 4.03125,-16.984375 12.09375,-25.04688 -2.30469,0.57422 -4.60547,1.29297 -6.90625,2.15625 -2.30469,0.86719 -4.89844,1.29688 -7.78125,1.29688 -6.90625,0 -12.66797,-2.30078 -17.28125,-6.90625 -4.60547,-4.61328 -6.90625,-10.37891 -6.90625,-17.29688 0,-6.90234 2.30078,-12.66015 6.90625,-17.26562 4.61328,-4.61328 10.375,-6.92187 17.28125,-6.92187 10.36328,0 18.71875,6.33984 25.0625,19.01562 v -6.92187 c 0,-12.08985 -2.01953,-21.30469 -6.04688,-27.64063 h 15.54688 c -4.03125,8.0625 -6.04688,17.27734 -6.04688,27.64063 v 6.92187 c 5.1836,-12.67578 13.53516,-19.01562 25.04688,-19.01562 6.91406,0 12.67578,2.30859 17.28125,6.92187 4.61328,4.60547 6.92187,10.36328 6.92187,17.26562 0,6.91797 -2.30859,12.6836 -6.92187,17.29688 -4.60547,4.60547 -10.36719,6.90625 -17.28125,6.90625 -2.30469,0 -4.75391,-0.42969 -7.34375,-1.29688 -2.58594,-0.86328 -5.03516,-1.58203 -7.34375,-2.15625 8.07031,8.062505 12.10937,16.414067 12.10937,25.04688 0,6.335937 -2.44921,11.949219 -7.34375,16.84375 -4.89843,4.898437 -10.51953,7.34375 -16.85937,7.34375 z m 197.85937,0 c -6.33593,0 -11.94921,-2.445313 -16.84375,-7.34375 -4.89843,-4.894531 -7.34375,-10.507813 -7.34375,-16.84375 0,-8.632813 4.03125,-16.984375 12.09375,-25.04688 -2.30468,0.57422 -4.61328,1.29297 -6.92187,2.15625 -2.30469,0.86719 -4.89453,1.29688 -7.76563,1.29688 -6.91796,0 -12.67968,-2.30078 -17.28125,-6.90625 -4.60546,-4.61328 -6.90625,-10.37891 -6.90625,-17.29688 0,-6.90234 2.30079,-12.66015 6.90625,-17.26562 4.60157,-4.61328 10.36329,-6.92187 17.28125,-6.92187 10.36329,0 18.71094,6.33984 25.04688,19.01562 v -6.92187 c 0,-12.08985 -2.01953,-21.30469 -6.04688,-27.64063 h 15.5625 c -4.03125,8.0625 -6.04687,17.27734 -6.04687,27.64063 v 6.92187 c 5.17578,-12.67578 13.52344,-19.01562 25.04687,-19.01562 6.91407,0 12.67579,2.30859 17.28125,6.92187 4.61329,4.60547 6.92188,10.36328 6.92188,17.26562 0,6.91797 -2.30859,12.6836 -6.92188,17.29688 -4.60546,4.60547 -10.36718,6.90625 -17.28125,6.90625 -2.30468,0 -4.7539,-0.42969 -7.34375,-1.29688 -2.59375,-0.86328 -5.04296,-1.58203 -7.34375,-2.15625 8.0586,8.062505 12.09375,16.414067 12.09375,25.04688 0,6.335937 -2.44921,11.949219 -7.34375,16.84375 -4.89843,4.898437 -10.51171,7.34375 -16.84375,7.34375 z m 95.04688,22.46875 c -13.25,0 -19.875,-5.179688 -19.875,-15.546875 0,-6.332031 2.87891,-10.65625 8.64062,-12.96875 -7.49218,-1.714844 -11.23437,-6.613281 -11.23437,-14.6875 0,-12.089844 7.48828,-18.140625 22.46875,-18.140625 14.96484,0 22.45312,6.050781 22.45312,18.140625 0,8.074219 -3.74609,12.972656 -11.23437,14.6875 5.75781,1.730469 8.64062,5.769531 8.64062,12.109375 0,5.179687 -2.16406,9.210937 -6.48437,12.09375 -4.3125,2.875 -8.77344,4.3125 -13.375,4.3125 z m 0,-32.828125 c 6.90234,0 10.35937,-3.164063 10.35937,-9.5 0,-6.339844 -3.45703,-9.515625 -10.35937,-9.515625 -6.91797,0 -10.375,3.175781 -10.375,9.515625 0,6.335937 3.45703,9.5 10.375,9.5 z m 0,23.328125 c 5.75781,0 8.64062,-2.59375 8.64062,-7.78125 0,-5.175781 -2.88281,-7.765625 -8.64062,-7.765625 -5.76172,0 -8.64063,2.589844 -8.64063,7.765625 0,5.1875 2.87891,7.78125 8.64063,7.78125 z m 0,0"
           id="path23059" />
      </symbol>
    </g>
    <clipPath
       id="clip1">
      <path
         d="M 0,0 H 651.96875 V 793.69922 H 0 Z m 0,0"
         id="path23064" />
    </clipPath>
  </defs>
  <g
     style="fill:#000;fill-opacity:1"
     id="g23075"
     transform="translate(-77.851398,-59.362854)">
    <use
       xlink:href="#glyph0-1"
       x="32.512901"
       y="735.39221"
       id="use23073"
       width="100%"
       height="100%" />
  </g>
  <g
     style="fill:#000;fill-opacity:1"
     id="g23079"
     transform="translate(-77.851398,-59.362854)">
    <use
       xlink:href="#glyph0-1"
       x="324.39691"
       y="735.39221"
       id="use23077"
       width="100%"
       height="100%" />
  </g>
  <g
     style="fill:#000;fill-opacity:1"
     id="g23083"
     transform="translate(-77.851398,-59.362854)">
    <use
       xlink:href="#glyph1-1"
       x="33.788898"
       y="721.19098"
       id="use23081"
       width="100%"
       height="100%" />
  </g>
</svg>
