<?xml version="1.0" encoding="UTF-8" standalone="no"?>
<svg
   width="495.9375pt"
   height="661.82812pt"
   viewBox="0 0 495.93752 661.82811"
   version="1.1"
   id="svg23501"
   sodipodi:docname="PLAYING CARD EIGHT OF DIAMONDS.svg"
   inkscape:version="1.1.1 (3bf5ae0d25, 2021-09-20)"
   xmlns:inkscape="http://www.inkscape.org/namespaces/inkscape"
   xmlns:sodipodi="http://sodipodi.sourceforge.net/DTD/sodipodi-0.dtd"
   xmlns:xlink="http://www.w3.org/1999/xlink"
   xmlns="http://www.w3.org/2000/svg"
   xmlns:svg="http://www.w3.org/2000/svg">
  <sodipodi:namedview
     id="namedview23503"
     pagecolor="#505050"
     bordercolor="#eeeeee"
     borderopacity="1"
     inkscape:pageshadow="0"
     inkscape:pageopacity="0"
     inkscape:pagecheckerboard="0"
     inkscape:document-units="pt"
     showgrid="false"
     inkscape:zoom="0.46963588"
     inkscape:cx="331.10758"
     inkscape:cy="450.3489"
     inkscape:window-width="1366"
     inkscape:window-height="705"
     inkscape:window-x="-8"
     inkscape:window-y="-8"
     inkscape:window-maximized="1"
     inkscape:current-layer="svg23501" />
  <defs
     id="defs23482">
    <g
       id="g23477">
      <symbol
         overflow="visible"
         id="glyph0-0">
        <path
           style="stroke:none"
           d=""
           id="path23465" />
      </symbol>
      <symbol
         overflow="visible"
         id="glyph0-1">
        <path
           style="stroke:none"
           d=""
           id="path23468" />
      </symbol>
      <symbol
         overflow="visible"
         id="glyph1-0">
        <path
           style="stroke:none"
           d="M 82.078125,0 V -616.89062 H 436.3125 V 0 Z M 126.14063,-44.0625 H 393.125 V -572.82812 H 126.14063 Z m 0,0"
           id="path23471" />
      </symbol>
      <symbol
         overflow="visible"
         id="glyph1-1">
        <path
           style="stroke:none"
           d="M 73.4375,0 C 61.34375,0 53.417969,-1.867188 49.671875,-5.609375 45.929688,-9.355469 44.0625,-17.28125 44.0625,-29.375 v -603.07812 c 0,-12.08985 1.867188,-20.00782 5.609375,-23.75 3.746094,-3.7461 11.671875,-5.625 23.765625,-5.625 H 510.625 c 12.08984,0 20.00781,1.8789 23.75,5.625 3.74609,3.74218 5.625,11.66015 5.625,23.75 V -29.375 c 0,12.09375 -1.87891,20.019531 -5.625,23.765625 C 530.63281,-1.867188 522.71484,0 510.625,0 Z m 5.1875,-12.09375 h 426.8125 c 9.78906,0 15.98437,-1.296875 18.57812,-3.890625 2.58985,-2.589844 3.89063,-8.785156 3.89063,-18.578125 v -592.70312 c 0,-10.36329 -1.30078,-16.69532 -3.89063,-19 -2.59375,-2.3086 -8.78906,-3.46875 -18.57812,-3.46875 H 78.625 c -10.367187,0 -16.707031,1.16015 -19.015625,3.46875 -2.304687,2.30468 -3.453125,8.63671 -3.453125,19 V -34.5625 c 0,9.792969 1.148438,15.988281 3.453125,18.578125 2.308594,2.59375 8.648438,3.890625 19.015625,3.890625 z m 19,-553.82812 c -14.96875,0 -22.453125,-6.04688 -22.453125,-18.14063 0,-8.05859 3.742188,-12.95703 11.234375,-14.6875 -5.761719,-1.72656 -8.640625,-5.75781 -8.640625,-12.09375 0,-5.18359 2.300781,-9.21875 6.90625,-12.09375 4.601563,-2.88281 8.921875,-4.32812 12.953125,-4.32812 13.24609,0 19.875,5.18359 19.875,15.54687 0,5.76172 -2.88281,10.08594 -8.64062,12.96875 7.48828,1.73047 11.23437,6.62891 11.23437,14.6875 0,12.09375 -7.49219,18.14063 -22.46875,18.14063 z m 0,-36.28125 c 5.75781,0 8.64063,-2.59375 8.64063,-7.78125 0,-5.1836 -2.88282,-7.78125 -8.64063,-7.78125 -5.761719,0 -8.640625,2.59765 -8.640625,7.78125 0,5.1875 2.878906,7.78125 8.640625,7.78125 z m 99.35937,120.95312 -48.375,-62.20312 48.375,-62.20313 48.39063,62.20313 z m 190.09375,0 -48.39062,-62.20312 48.39062,-62.20313 48.375,62.20313 z M 97.625,-575.42187 c 6.91406,0 10.375,-3.16407 10.375,-9.5 0,-6.33985 -3.46094,-9.51563 -10.375,-9.51563 -6.90625,0 -10.359375,3.17578 -10.359375,9.51563 0,6.33593 3.453125,9.5 10.359375,9.5 z M 98.5,-491.60937 76.03125,-520.125 98.5,-548.64062 120.95313,-520.125 Z m 193.53125,116.64062 -48.39063,-62.21875 48.39063,-62.20312 48.39062,62.20312 z m -95.04688,106.26563 -48.375,-62.20313 48.375,-62.21875 48.39063,62.21875 z m 190.09375,0 -48.39062,-62.20313 48.39062,-62.21875 48.375,62.21875 z m -95.04687,106.26562 -48.39063,-62.20312 48.39063,-62.20313 48.39062,62.20313 z m -95.04688,106.28125 -48.375,-62.21875 48.375,-62.20312 48.39063,62.20312 z m 190.09375,0 -48.39062,-62.21875 48.39062,-62.20312 48.375,62.20312 z m 98.48438,-57.03125 -22.45313,-28.51562 22.45313,-28.5 22.46875,28.5 z m 0.875,78.625 c -13.25,0 -19.875,-5.179688 -19.875,-15.546875 0,-6.332031 2.87891,-10.65625 8.64062,-12.96875 -7.49218,-1.714844 -11.23437,-6.613281 -11.23437,-14.6875 0,-12.089844 7.48828,-18.140625 22.46875,-18.140625 14.96484,0 22.45312,6.050781 22.45312,18.140625 0,8.074219 -3.74609,12.972656 -11.23437,14.6875 5.75781,1.730469 8.64062,5.769531 8.64062,12.109375 0,5.179687 -2.16406,9.210937 -6.48437,12.09375 -4.3125,2.875 -8.77344,4.3125 -13.375,4.3125 z m 0,-32.828125 c 6.90234,0 10.35937,-3.164063 10.35937,-9.5 0,-6.339844 -3.45703,-9.515625 -10.35937,-9.515625 -6.91797,0 -10.375,3.175781 -10.375,9.515625 0,6.335937 3.45703,9.5 10.375,9.5 z m 0,23.328125 c 5.75781,0 8.64062,-2.59375 8.64062,-7.78125 0,-5.175781 -2.88281,-7.765625 -8.64062,-7.765625 -5.76172,0 -8.64063,2.589844 -8.64063,7.765625 0,5.1875 2.87891,7.78125 8.64063,7.78125 z m 0,0"
           id="path23474" />
      </symbol>
    </g>
    <clipPath
       id="clip1">
      <path
         d="M 0,0 H 651.96875 V 793.69922 H 0 Z m 0,0"
         id="path23479" />
    </clipPath>
  </defs>
  <g
     style="fill:#C0020A;fill-opacity:1"
     id="g23490"
     transform="translate(-77.851398,-59.362854)">
    <use
       xlink:href="#glyph0-1"
       x="32.512901"
       y="735.39221"
       id="use23488"
       width="100%"
       height="100%" />
  </g>
  <g
     style="fill:#C0020A;fill-opacity:1"
     id="g23494"
     transform="translate(-77.851398,-59.362854)">
    <use
       xlink:href="#glyph0-1"
       x="324.39691"
       y="735.39221"
       id="use23492"
       width="100%"
       height="100%" />
  </g>
  <g
     style="fill:#C0020A;fill-opacity:1"
     id="g23498"
     transform="translate(-77.851398,-59.362854)">
    <use
       xlink:href="#glyph1-1"
       x="33.788898"
       y="721.19098"
       id="use23496"
       width="100%"
       height="100%" />
  </g>
</svg>
