<?xml version="1.0" encoding="UTF-8" standalone="no"?>
<svg
   width="495.9375pt"
   height="661.82812pt"
   viewBox="0 0 495.93752 661.82811"
   version="1.1"
   id="svg34352"
   sodipodi:docname="PLAYING CARD NINE OF CLUBS.svg"
   inkscape:version="1.1.1 (3bf5ae0d25, 2021-09-20)"
   xmlns:inkscape="http://www.inkscape.org/namespaces/inkscape"
   xmlns:sodipodi="http://sodipodi.sourceforge.net/DTD/sodipodi-0.dtd"
   xmlns:xlink="http://www.w3.org/1999/xlink"
   xmlns="http://www.w3.org/2000/svg"
   xmlns:svg="http://www.w3.org/2000/svg">
  <sodipodi:namedview
     id="namedview34354"
     pagecolor="#505050"
     bordercolor="#eeeeee"
     borderopacity="1"
     inkscape:pageshadow="0"
     inkscape:pageopacity="0"
     inkscape:pagecheckerboard="0"
     inkscape:document-units="pt"
     showgrid="false"
     inkscape:zoom="0.46963588"
     inkscape:cx="331.10758"
     inkscape:cy="450.3489"
     inkscape:window-width="1366"
     inkscape:window-height="705"
     inkscape:window-x="-8"
     inkscape:window-y="-8"
     inkscape:window-maximized="1"
     inkscape:current-layer="svg34352" />
  <defs
     id="defs34333">
    <g
       id="g34328">
      <symbol
         overflow="visible"
         id="glyph0-0">
        <path
           style="stroke:none"
           d=""
           id="path34316" />
      </symbol>
      <symbol
         overflow="visible"
         id="glyph0-1">
        <path
           style="stroke:none"
           d=""
           id="path34319" />
      </symbol>
      <symbol
         overflow="visible"
         id="glyph1-0">
        <path
           style="stroke:none"
           d="M 82.078125,0 V -616.89062 H 436.3125 V 0 Z M 126.14063,-44.0625 H 393.125 V -572.82812 H 126.14063 Z m 0,0"
           id="path34322" />
      </symbol>
      <symbol
         overflow="visible"
         id="glyph1-1">
        <path
           style="stroke:none"
           d="M 73.4375,0 C 61.34375,0 53.417969,-1.867188 49.671875,-5.609375 45.929688,-9.355469 44.0625,-17.28125 44.0625,-29.375 v -603.07812 c 0,-12.08985 1.867188,-20.00782 5.609375,-23.75 3.746094,-3.7461 11.671875,-5.625 23.765625,-5.625 H 510.625 c 12.08984,0 20.00781,1.8789 23.75,5.625 3.74609,3.74218 5.625,11.66015 5.625,23.75 V -29.375 c 0,12.09375 -1.87891,20.019531 -5.625,23.765625 C 530.63281,-1.867188 522.71484,0 510.625,0 Z m 5.1875,-12.09375 h 426.8125 c 9.78906,0 15.98437,-1.296875 18.57812,-3.890625 2.58985,-2.589844 3.89063,-8.785156 3.89063,-18.578125 v -592.70312 c 0,-10.36329 -1.30078,-16.69532 -3.89063,-19 -2.59375,-2.3086 -8.78906,-3.46875 -18.57812,-3.46875 H 78.625 c -10.367187,0 -16.707031,1.16015 -19.015625,3.46875 -2.304687,2.30468 -3.453125,8.63671 -3.453125,19 V -34.5625 c 0,9.792969 1.148438,15.988281 3.453125,18.578125 2.308594,2.59375 8.648438,3.890625 19.015625,3.890625 z m 15.546875,-553.82812 c -10.9375,0 -17.273437,-5.47266 -19,-16.42188 H 86.40625 c 1.714844,4.61719 4.304688,6.92188 7.765625,6.92188 7.488285,0 11.234375,-4.89454 11.234375,-14.6875 v -2.59375 c -4.03125,4.03125 -8.351562,6.04687 -12.953125,6.04687 -5.1875,0 -9.511719,-1.86719 -12.96875,-5.60937 -3.460937,-3.7461 -5.1875,-8.21094 -5.1875,-13.39063 0,-14.40234 6.914063,-21.60937 20.75,-21.60937 14.964845,0 22.453125,10.08203 22.453125,30.23437 0,20.74219 -7.77734,31.10938 -23.328125,31.10938 z m 0.875,-29.375 c 6.332035,0 9.500005,-3.74219 9.500005,-11.23438 0,-6.90234 -3.16797,-10.35937 -9.500005,-10.35937 -5.761719,0 -8.640625,3.45703 -8.640625,10.35937 0,7.49219 2.878906,11.23438 8.640625,11.23438 z m 288.562495,100.21875 c 4.02735,-6.33204 6.04688,-15.54688 6.04688,-27.64063 v -6.90625 c -5.75,12.66797 -14.10156,19 -25.04688,19 -6.91796,0 -12.67968,-2.30078 -17.28125,-6.90625 -4.60546,-4.61328 -6.90625,-10.375 -6.90625,-17.28125 0,-6.91406 2.30079,-12.67578 6.90625,-17.28125 4.60157,-4.61328 10.36329,-6.92187 17.28125,-6.92187 5.75782,0 10.65625,1.16015 14.6875,3.46875 -8.0625,-8.0586 -12.09375,-16.41407 -12.09375,-25.0625 0,-6.33204 2.44532,-11.94532 7.34375,-16.84375 4.89454,-4.89454 10.50782,-7.34375 16.84375,-7.34375 6.33204,0 11.94532,2.44921 16.84375,7.34375 4.89454,4.89843 7.34375,10.51171 7.34375,16.84375 0,8.64843 -4.03515,17.0039 -12.09375,25.0625 4.02735,-2.3086 8.92579,-3.46875 14.6875,-3.46875 6.91407,0 12.67579,2.30859 17.28125,6.92187 4.61329,4.60547 6.92188,10.36719 6.92188,17.28125 0,6.90625 -2.30859,12.66797 -6.92188,17.28125 -4.60546,4.60547 -10.36718,6.90625 -17.28125,6.90625 -11.52343,0 -19.87109,-6.33203 -25.04687,-19 v 6.90625 c 0,10.36719 2.01562,19.58203 6.04687,27.64063 z m -197.84375,0 c 4.02735,-6.33204 6.04688,-15.54688 6.04688,-27.64063 v -6.90625 c -5.76172,12.66797 -14.11719,19 -25.0625,19 -6.90625,0 -12.66797,-2.30078 -17.28125,-6.90625 -4.60547,-4.61328 -6.90625,-10.375 -6.90625,-17.28125 0,-6.91406 2.30078,-12.67578 6.90625,-17.28125 4.61328,-4.61328 10.375,-6.92187 17.28125,-6.92187 5.75781,0 10.65625,1.16015 14.6875,3.46875 -8.0625,-8.0586 -12.09375,-16.41407 -12.09375,-25.0625 0,-6.33204 2.44531,-11.94532 7.34375,-16.84375 4.89453,-4.89454 10.50781,-7.34375 16.84375,-7.34375 6.33984,0 11.96094,2.44921 16.85937,7.34375 4.89454,4.89843 7.34375,10.51171 7.34375,16.84375 0,8.64843 -4.03906,17.0039 -12.10937,25.0625 4.03906,-2.3086 8.9375,-3.46875 14.6875,-3.46875 6.91406,0 12.67578,2.30859 17.28125,6.92187 4.61328,4.60547 6.92187,10.36719 6.92187,17.28125 0,6.90625 -2.30859,12.66797 -6.92187,17.28125 -4.60547,4.60547 -10.36719,6.90625 -17.28125,6.90625 -11.51172,0 -19.86328,-6.33203 -25.04688,-19 v 6.90625 c 0,10.36719 2.01563,19.58203 6.04688,27.64063 z m -90.718745,0.875 2.578125,-14.6875 v -2.59375 c -2.304687,5.17968 -6.335937,7.76562 -12.09375,7.76562 -8.0625,0 -12.09375,-3.73828 -12.09375,-11.21875 0,-7.48828 4.03125,-11.23437 12.09375,-11.23437 l 3.453125,0.85937 c -1.71875,-1.72656 -2.578125,-5.47266 -2.578125,-11.23437 0,-8.63282 4.03125,-12.95313 12.09375,-12.95313 8.05859,0 12.09375,4.32031 12.09375,12.95313 0,4.03125 -1.73047,7.77734 -5.1875,11.23437 l 6.04688,-0.85937 c 8.05859,0 12.09375,3.74609 12.09375,11.23437 0,7.48047 -4.03516,11.21875 -12.09375,11.21875 -5.17969,0 -9.21094,-2.58594 -12.093755,-7.76562 v 2.59375 l 2.593755,14.6875 z m 288.562495,147.73437 c 4.02735,-6.33203 6.04688,-15.54687 6.04688,-27.64062 v -6.92188 c -5.75,12.67969 -14.10156,19.01563 -25.04688,19.01563 -6.91796,0 -12.67968,-2.30079 -17.28125,-6.90625 -4.60546,-4.61329 -6.90625,-10.375 -6.90625,-17.28125 0,-6.91407 2.30079,-12.67579 6.90625,-17.28125 4.60157,-4.61329 10.36329,-6.92188 17.28125,-6.92188 5.75782,0 10.65625,1.16016 14.6875,3.46875 -8.0625,-8.07031 -12.09375,-16.42578 -12.09375,-25.0625 0,-6.33203 2.44532,-11.94531 7.34375,-16.84375 4.89454,-4.89453 10.50782,-7.34375 16.84375,-7.34375 6.33204,0 11.94532,2.44922 16.84375,7.34375 4.89454,4.89844 7.34375,10.51172 7.34375,16.84375 0,8.63672 -4.03515,16.99219 -12.09375,25.0625 4.02735,-2.30859 8.92579,-3.46875 14.6875,-3.46875 6.91407,0 12.67579,2.30859 17.28125,6.92188 4.61329,4.60546 6.92188,10.36718 6.92188,17.28125 0,6.90625 -2.30859,12.66796 -6.92188,17.28125 -4.60546,4.60546 -10.36718,6.90625 -17.28125,6.90625 -11.52343,0 -19.87109,-6.33594 -25.04687,-19.01563 v 6.92188 c 0,10.36718 2.01562,19.58203 6.04687,27.64062 z m -197.84375,0 c 4.02735,-6.33203 6.04688,-15.54687 6.04688,-27.64062 v -6.92188 c -5.76172,12.67969 -14.11719,19.01563 -25.0625,19.01563 -6.90625,0 -12.66797,-2.30079 -17.28125,-6.90625 -4.60547,-4.61329 -6.90625,-10.375 -6.90625,-17.28125 0,-6.91407 2.30078,-12.67579 6.90625,-17.28125 4.61328,-4.61329 10.375,-6.92188 17.28125,-6.92188 5.75781,0 10.65625,1.16016 14.6875,3.46875 -8.0625,-8.07031 -12.09375,-16.42578 -12.09375,-25.0625 0,-6.33203 2.44531,-11.94531 7.34375,-16.84375 4.89453,-4.89453 10.50781,-7.34375 16.84375,-7.34375 6.33984,0 11.96094,2.44922 16.85937,7.34375 4.89454,4.89844 7.34375,10.51172 7.34375,16.84375 0,8.63672 -4.03906,16.99219 -12.10937,25.0625 4.03906,-2.30859 8.9375,-3.46875 14.6875,-3.46875 6.91406,0 12.67578,2.30859 17.28125,6.92188 4.61328,4.60546 6.92187,10.36718 6.92187,17.28125 0,6.90625 -2.30859,12.66796 -6.92187,17.28125 -4.60547,4.60546 -10.36719,6.90625 -17.28125,6.90625 -11.51172,0 -19.86328,-6.33594 -25.04688,-19.01563 v 6.92188 c 0,10.36718 2.01563,19.58203 6.04688,27.64062 z m 98.48438,69.125 c 4.02734,-6.33203 6.04687,-15.54687 6.04687,-27.64062 v -6.92188 c -5.17968,12.67969 -13.52734,19.01563 -25.04687,19.01563 -6.91797,0 -12.67969,-2.30079 -17.28125,-6.90625 -4.60547,-4.61329 -6.90625,-10.37891 -6.90625,-17.29688 0,-6.90234 2.30078,-12.66016 6.90625,-17.26562 4.60156,-4.61329 10.36328,-6.92188 17.28125,-6.92188 5.75781,0 10.65625,1.15234 14.6875,3.45313 -8.0625,-8.0586 -12.09375,-16.41016 -12.09375,-25.04688 0,-6.33984 2.58594,-11.96094 7.76562,-16.85937 5.1836,-4.89454 10.66016,-7.34375 16.42188,-7.34375 6.33203,0 11.94531,2.44921 16.84375,7.34375 4.89453,4.89843 7.34375,10.51953 7.34375,16.85937 0,8.63672 -4.03516,16.98828 -12.09375,25.04688 4.02734,-2.30079 8.92578,-3.45313 14.6875,-3.45313 6.91406,0 12.67578,2.30859 17.28125,6.92188 4.61328,4.60546 6.92187,10.36328 6.92187,17.26562 0,6.91797 -2.30859,12.68359 -6.92187,17.29688 -4.60547,4.60546 -10.36719,6.90625 -17.28125,6.90625 -10.9375,0 -19.28906,-6.33594 -25.04688,-19.01563 v 6.92188 c 0,12.09375 2.01563,21.30859 6.04688,27.64062 z m -90.71875,71.71875 c -6.33594,0 -11.94922,-2.44531 -16.84375,-7.34375 -4.89844,-4.89453 -7.34375,-10.51562 -7.34375,-16.85937 0,-8.63282 4.03125,-16.98438 12.09375,-25.04688 -4.03125,2.30469 -8.92969,3.45313 -14.6875,3.45313 -6.90625,0 -12.66797,-2.30079 -17.28125,-6.90625 -4.60547,-4.61329 -6.90625,-10.375 -6.90625,-17.28125 0,-6.91407 2.30078,-12.67579 6.90625,-17.28125 4.61328,-4.61329 10.375,-6.92188 17.28125,-6.92188 10.94531,0 19.30078,6.33984 25.0625,19.01563 v -6.92188 c 0,-12.08984 -2.01953,-21.30469 -6.04688,-27.64062 h 15.54688 c -4.03125,8.0625 -6.04688,17.27734 -6.04688,27.64062 v 6.92188 c 5.1836,-12.67579 13.53516,-19.01563 25.04688,-19.01563 6.91406,0 12.67578,2.30859 17.28125,6.92188 4.61328,4.60546 6.92187,10.36718 6.92187,17.28125 0,6.90625 -2.30859,12.66796 -6.92187,17.28125 -4.60547,4.60546 -10.36719,6.90625 -17.28125,6.90625 -5.75,0 -10.64844,-1.14844 -14.6875,-3.45313 8.07031,8.0625 12.10937,16.41406 12.10937,25.04688 0,6.34375 -2.44921,11.96484 -7.34375,16.85937 -4.89843,4.89844 -10.51953,7.34375 -16.85937,7.34375 z m 197.85937,0 c -6.33593,0 -11.94921,-2.44531 -16.84375,-7.34375 -4.89843,-4.89453 -7.34375,-10.51562 -7.34375,-16.85937 0,-8.63282 4.03125,-16.98438 12.09375,-25.04688 -4.03125,2.30469 -8.92968,3.45313 -14.6875,3.45313 -6.91796,0 -12.67968,-2.30079 -17.28125,-6.90625 -4.60546,-4.61329 -6.90625,-10.375 -6.90625,-17.28125 0,-6.91407 2.30079,-12.67579 6.90625,-17.28125 4.60157,-4.61329 10.36329,-6.92188 17.28125,-6.92188 10.94532,0 19.29688,6.33984 25.04688,19.01563 v -6.92188 c 0,-12.08984 -2.01953,-21.30469 -6.04688,-27.64062 h 15.5625 c -4.03125,8.0625 -6.04687,17.27734 -6.04687,27.64062 v 6.92188 c 5.17578,-12.67579 13.52344,-19.01563 25.04687,-19.01563 6.91407,0 12.67579,2.30859 17.28125,6.92188 4.61329,4.60546 6.92188,10.36718 6.92188,17.28125 0,6.90625 -2.30859,12.66796 -6.92188,17.28125 -4.60546,4.60546 -10.36718,6.90625 -17.28125,6.90625 -5.76171,0 -10.66015,-1.14844 -14.6875,-3.45313 8.0586,8.0625 12.09375,16.41406 12.09375,25.04688 0,6.34375 -2.44921,11.96484 -7.34375,16.85937 -4.89843,4.89844 -10.51171,7.34375 -16.84375,7.34375 z m 94.17188,93.3125 c -8.0625,0 -12.09375,-4.32031 -12.09375,-12.96875 0,-4.60156 1.72656,-8.05469 5.1875,-10.35937 h -6.04688 c -8.0625,0 -12.09375,-3.74219 -12.09375,-11.23438 0,-7.48828 4.03125,-11.23437 12.09375,-11.23437 6.33204,0 10.36329,2.58984 12.09375,7.76562 v -2.57812 l -2.59375,-14.6875 h 6.92188 l -2.59375,14.6875 v 2.57812 c 1.72656,-5.17578 5.75781,-7.76562 12.09375,-7.76562 8.05859,0 12.09375,3.74609 12.09375,11.23437 0,7.49219 -4.03516,11.23438 -12.09375,11.23438 h -6.04688 c 3.44532,3.44921 5.17188,6.90234 5.17188,10.35937 0,8.64844 -4.03516,12.96875 -12.09375,12.96875 z m -292.03125,55.28125 c -6.33594,0 -11.94922,-2.445313 -16.84375,-7.34375 -4.89844,-4.894531 -7.34375,-10.507813 -7.34375,-16.84375 0,-8.632813 4.03125,-16.984375 12.09375,-25.04688 -2.30469,0.57422 -4.60547,1.29297 -6.90625,2.15625 -2.30469,0.86719 -4.89844,1.29688 -7.78125,1.29688 -6.90625,0 -12.66797,-2.30078 -17.28125,-6.90625 -4.60547,-4.61328 -6.90625,-10.37891 -6.90625,-17.29688 0,-6.90234 2.30078,-12.66015 6.90625,-17.26562 4.61328,-4.61328 10.375,-6.92187 17.28125,-6.92187 10.36328,0 18.71875,6.33984 25.0625,19.01562 v -6.92187 c 0,-12.08985 -2.01953,-21.30469 -6.04688,-27.64063 h 15.54688 c -4.03125,8.0625 -6.04688,17.27734 -6.04688,27.64063 v 6.92187 c 5.1836,-12.67578 13.53516,-19.01562 25.04688,-19.01562 6.91406,0 12.67578,2.30859 17.28125,6.92187 4.61328,4.60547 6.92187,10.36328 6.92187,17.26562 0,6.91797 -2.30859,12.6836 -6.92187,17.29688 -4.60547,4.60547 -10.36719,6.90625 -17.28125,6.90625 -2.30469,0 -4.75391,-0.42969 -7.34375,-1.29688 -2.58594,-0.86328 -5.03516,-1.58203 -7.34375,-2.15625 8.07031,8.062505 12.10937,16.414067 12.10937,25.04688 0,6.335937 -2.44921,11.949219 -7.34375,16.84375 -4.89843,4.898437 -10.51953,7.34375 -16.85937,7.34375 z m 197.85937,0 c -6.33593,0 -11.94921,-2.445313 -16.84375,-7.34375 -4.89843,-4.894531 -7.34375,-10.507813 -7.34375,-16.84375 0,-8.632813 4.03125,-16.984375 12.09375,-25.04688 -2.30468,0.57422 -4.61328,1.29297 -6.92187,2.15625 -2.30469,0.86719 -4.89453,1.29688 -7.76563,1.29688 -6.91796,0 -12.67968,-2.30078 -17.28125,-6.90625 -4.60546,-4.61328 -6.90625,-10.37891 -6.90625,-17.29688 0,-6.90234 2.30079,-12.66015 6.90625,-17.26562 4.60157,-4.61328 10.36329,-6.92187 17.28125,-6.92187 10.36329,0 18.71094,6.33984 25.04688,19.01562 v -6.92187 c 0,-12.08985 -2.01953,-21.30469 -6.04688,-27.64063 h 15.5625 c -4.03125,8.0625 -6.04687,17.27734 -6.04687,27.64063 v 6.92187 c 5.17578,-12.67578 13.52344,-19.01562 25.04687,-19.01562 6.91407,0 12.67579,2.30859 17.28125,6.92187 4.61329,4.60547 6.92188,10.36328 6.92188,17.26562 0,6.91797 -2.30859,12.6836 -6.92188,17.29688 -4.60546,4.60547 -10.36718,6.90625 -17.28125,6.90625 -2.30468,0 -4.7539,-0.42969 -7.34375,-1.29688 -2.59375,-0.86328 -5.04296,-1.58203 -7.34375,-2.15625 8.0586,8.062505 12.09375,16.414067 12.09375,25.04688 0,6.335937 -2.44921,11.949219 -7.34375,16.84375 -4.89843,4.898437 -10.51171,7.34375 -16.84375,7.34375 z m 97.64063,22.46875 c -14.98047,0 -22.46875,-10.078125 -22.46875,-30.234375 0,-20.738281 7.77344,-31.109375 23.32812,-31.109375 10.9336,0 17.26954,5.476562 19,16.421875 h -11.23437 c -1.14844,-4.613281 -3.73828,-6.921875 -7.76563,-6.921875 -7.49218,0 -11.23437,4.898437 -11.23437,14.6875 v 2.59375 c 4.02734,-4.027344 8.34766,-6.046875 12.95312,-6.046875 5.1836,0 9.50782,1.878906 12.96875,5.625 3.45704,3.742187 5.1875,8.207031 5.1875,13.390625 0,14.398437 -6.91406,21.59375 -20.73437,21.59375 z m 0,-10.359375 c 5.74609,0 8.625,-3.457031 8.625,-10.375 0,-7.488281 -2.87891,-11.234375 -8.625,-11.234375 -6.34375,0 -9.51563,3.746094 -9.51563,11.234375 0,6.917969 3.17188,10.375 9.51563,10.375 z m 0,0"
           id="path34325" />
      </symbol>
    </g>
    <clipPath
       id="clip1">
      <path
         d="M 0,0 H 651.96875 V 793.69922 H 0 Z m 0,0"
         id="path34330" />
    </clipPath>
  </defs>
  <g
     style="fill:#000;fill-opacity:1"
     id="g34341"
     transform="translate(-77.851398,-59.362854)">
    <use
       xlink:href="#glyph0-1"
       x="32.512901"
       y="735.39221"
       id="use34339"
       width="100%"
       height="100%" />
  </g>
  <g
     style="fill:#000;fill-opacity:1"
     id="g34345"
     transform="translate(-77.851398,-59.362854)">
    <use
       xlink:href="#glyph0-1"
       x="324.39691"
       y="735.39221"
       id="use34343"
       width="100%"
       height="100%" />
  </g>
  <g
     style="fill:#000;fill-opacity:1"
     id="g34349"
     transform="translate(-77.851398,-59.362854)">
    <use
       xlink:href="#glyph1-1"
       x="33.788898"
       y="721.19098"
       id="use34347"
       width="100%"
       height="100%" />
  </g>
</svg>
